<?xml version="1.0" ?><!DOCTYPE svg  PUBLIC '-//W3C//DTD SVG 1.1//EN'  'http://www.w3.org/Graphics/SVG/1.1/DTD/svg11.dtd'><svg height="256px" style="enable-background:new 0 0 256 256;" version="1.1" viewBox="0 0 256 256" width="256px" xml:space="preserve" xmlns="http://www.w3.org/2000/svg" xmlns:xlink="http://www.w3.org/1999/xlink"><g id="Background_1_" style="enable-background:new    ;"><g id="Background"><g><path d="M249.422,30.68c-2.722-4.986-5.816-9.537-9.793-13.521     c-3.992-3.998-8.709-7.587-13.703-10.314c-8.381-4.576-18.788-6.856-29.002-6.856H59.075c-10.444,0-20.542,2.345-29.265,6.948     c-5.022,2.651-9.588,6.147-13.503,10.127c-3.931,3.998-7.491,8.488-10.046,13.572c-4.289,8.533-6.274,18.478-6.274,28.649     v137.431c0,10.326,1.671,20.678,6.296,29.134c2.681,4.9,6.191,9.861,10.087,13.794c3.934,3.971,8.583,7.226,13.502,9.956     c8.466,4.7,18.842,6.413,29.202,6.413h137.849c10.568,0,20.399-1.523,28.982-6.401c4.739-2.692,9.879-6.113,13.687-9.966     c3.923-3.969,7.2-8.85,9.886-13.798c4.566-8.416,6.533-18.875,6.533-29.132V59.284C256.012,48.978,254.031,39.124,249.422,30.68z     " style="fill-rule:evenodd;clip-rule:evenodd;fill:#FFFFFF;"/></g></g></g><g id="Shape_1_1_" style="enable-background:new    ;"><g id="Shape_1"><g><path d="M199.336,90.68c-1.185-4.515-2.832-8.989-4.92-12.766     c-3.086-5.583-7.107-11.248-11.945-15.109c-2.586-2.063-6.346-3.768-8.434-6.324c-3.137-3.841-1.831-8.806-3.396-14.171     c-2.183-7.487-8.451-11.063-18.27-11.01c-2.538,0.329-4.427,0.823-6.208,1.405l-0.117,0.352c0.896,0.894,3.218,0.904,4.333,1.522     c3.252,1.802,5.494,7.68,1.406,10.307c-2.809,1.805-7.692-0.139-10.424-0.819c-5.805-1.448-12.169-1.991-19.325-1.991     c-2.069,0.039-4.139,0.078-6.208,0.117c-6.269,0.716-11.506,1.349-16.748,2.811c-19.164,5.345-35.178,16.672-42.28,34.082     c-10.69,26.201,6.319,50.795,21.198,62.308c4.229,3.271,8.785,6.068,13.586,8.784c2.942,1.664,7.61,2.677,6.207,6.324     c-0.736,1.336-1.586,1.915-2.693,2.577c-3.188,1.905-9.385,1.03-13.352,2.108c-7.44,2.021-12.388,7.385-14.874,14.405     c-1.176,3.32-2.568,8.738-0.352,11.946c1.783,2.58,6.318,3.081,8.315,0.352c1.028-1.404,0.552-2.909,0.937-5.153     c0.522-3.045,1.7-5.857,3.748-7.379c2.779-2.064,8.212-1.537,9.955,1.055c1.772,2.635,1.494,7.774,0.117,10.54     c-3.695,7.424-21.177,16.184-7.027,24.127c4.146,2.327,8.603-1.567,10.541-3.514c3.654-3.671,6.573-8.646,8.315-14.172     c1.484-4.706,1.765-10.564,5.153-13.352c1.779-1.463,6.263-1.514,8.433-0.351c4.164,2.23,2.284,10.47,1.054,14.522     c-1.705,5.617-5.078,10.083-9.135,13.352c-1.849,1.489-4.025,3.331-5.271,5.388c-2.619,4.326,1.788,8.641,4.919,9.838     c4.585,1.754,8.909-1.427,11.126-3.631c3.153-3.134,5.481-6.438,7.027-11.243c2.188-6.805,2.509-18.986,9.37-20.73     c5.881-1.495,12.497,5.582,10.893,11.36c-1.529,5.506-7.533,7.973-9.136,13.586c-1.518,5.314,4.34,9.521,9.253,7.379     c10.693-4.661,18.373-32.618,6.793-42.163c-3.594-2.963-17.361-7.483-14.641-14.874c1.609-4.368,8.862-3.689,13.703-4.919     c9.769-2.481,17.988-5.906,25.299-10.775C191.26,136.792,206.287,117.185,199.336,90.68z M104.937,65.908     c3.895-2.065,8.199-4.018,13-5.182c3.055-0.879,23.506-5.443,38.065,14.845c1.271,1.772,6.6,8.383,4.626,11.303     c-0.984,1.455-3.942,1.942-5.329,0.556c-1.25-2.068-2.675-4.313-3.924-6.383c-4.85-6.958-10.553-12.788-20.936-14.172     c-9.073-1.209-19.007,3.368-24.097,6.441c-2.209,1.334-5.18,1.695-6.266-0.702C98.395,68.902,102.806,67.039,104.937,65.908z      M166.874,122.331c-1.521,4.709-5.554,8.594-11.063,11.247c-7.954,3.832-18.901,5.184-29.089,3.475     c-6.403-1.075-12.292-2.601-17.41-4.617c-11.806-4.653-19.292-11.062-23.147-15.996c-1.794-2.297-3.885-4.896-5.028-7.869     c-2.039-5.307-2.371-11.887-0.199-14.719c1.95-2.542,3.477-3.447,8.189-3.972c8.089,0.053,14.79,1.702,21.199,3.63     c7.026,1.601,14.055,3.095,21.082,4.695c11.074,2.391,23.719,3.371,31.964,9.115C167.164,109.964,169.068,115.54,166.874,122.331     z" style="fill-rule:evenodd;clip-rule:evenodd;fill:#DC153C;"/></g></g></g></svg>